# xmcd
#
# Track frame offsets: 
#        183
#        15768
#        25563
#        35603
#        52773
#        66898
#        76930
#        89288
#        99578
#        112255
#        124453
#        132830
#        142533
#        155310
#        168265
#        181028
#
# Disc length: 2559 seconds
#
# Revision: 4
# Processed by: cddbd v1.5.2PL0 Copyright (c) Steve Scherf et al.
# Submitted via: ExactAudioCopyFreeDBPlugin 1.0
#
DISCID=b809fd10
DTITLE=Ike and Tina Turner - Rock Me Baby
DYEAR=1987
DGENRE=Soul
TTITLE0=Crazy 'Bout You Baby
TTITLE1=Too Hot to Hold
TTITLE2=Please Love Me
TTITLE3=I Smell Trouble
TTITLE4=It Sho' Ain't Me
TTITLE5=Beauty is Just Skin Deep
TTITLE6=We Need Understanding
TTITLE7=Shake a Tail Feather
TTITLE8=Rock Me Baby
TTITLE9=So Fine
TTITLE10=My Babe
TTITLE11=Ain't Nobody's Business
TTITLE12=I Better Getta Steppin'
TTITLE13=Betcha Can't Kiss Me (Just One Time)
TTITLE14=A Fool in Love
TTITLE15=You're So Fine
EXTD=YEAR: 1987 ID3G: 14
EXTT0=
EXTT1=
EXTT2=
EXTT3=
EXTT4=
EXTT5=
EXTT6=
EXTT7=
EXTT8=
EXTT9=
EXTT10=
EXTT11=
EXTT12=
EXTT13=
EXTT14=
EXTT15=
PLAYORDER=
